<svg width="160" height="160" viewBox="0 0 160 160" fill="none" xmlns="http://www.w3.org/2000/svg">
<path d="M79.9885 156.571C40.2465 148.617 11.4285 111.293 11.4285 67.7976V28.2105C11.4285 26.6105 11.9541 25.0563 12.9139 23.7764C13.8738 22.4964 15.245 21.5593 16.799 21.125L75.7834 4.02854C78.5258 3.22857 81.4511 3.22857 84.2163 4.02854L143.201 21.125C144.755 21.5822 146.103 22.4964 147.086 23.7764C148.046 25.0563 148.571 26.6105 148.571 28.2105V67.7976C148.548 111.316 119.73 148.663 79.9885 156.571Z" fill="#69B42E"/>
<path fill-rule="evenodd" clip-rule="evenodd" d="M79.8742 3.42902C78.4937 3.43971 77.117 3.63955 75.7834 4.02854L16.799 21.125C15.245 21.5593 13.8738 22.4964 12.9139 23.7764C11.9541 25.0563 11.4285 26.6106 11.4285 28.2105V67.7976C11.4285 111.251 40.1913 148.546 79.8742 156.548V3.42902Z" fill="white" fill-opacity="0.15"/>
<path fill-rule="evenodd" clip-rule="evenodd" d="M61.7144 44.5035C61.7144 41.9787 63.7611 39.932 66.2858 39.932H93.7144C96.2391 39.932 98.2858 41.9787 98.2858 44.5035V103.932C98.2858 106.457 96.2391 108.503 93.7144 108.503H66.2858C63.7611 108.503 61.7144 106.457 61.7144 103.932V44.5035ZM82.0572 104.618C82.0572 105.754 81.1362 106.675 80.0001 106.675C78.8639 106.675 77.9429 105.754 77.9429 104.618C77.9429 103.482 78.8639 102.561 80.0001 102.561C81.1362 102.561 82.0572 103.482 82.0572 104.618ZM66.7173 42.2178H71.0702V43.132C71.0702 43.8895 71.6842 44.5035 72.4416 44.5035H86.613C87.3704 44.5035 87.9844 43.8895 87.9844 43.132V42.2178H93.2828C94.7835 42.2178 96.0001 43.4343 96.0001 44.935V98.9291C96.0001 100.43 94.7835 101.646 93.2828 101.646H66.7173C65.2166 101.646 64.0001 100.43 64.0001 98.9291V44.935C64.0001 43.4343 65.2166 42.2178 66.7173 42.2178Z" fill="white"/>
<path fill-rule="evenodd" clip-rule="evenodd" d="M71.0702 42.2178H66.7173C65.2166 42.2178 64.0001 43.4343 64.0001 44.935V98.9291C64.0001 100.43 65.2166 101.646 66.7173 101.646H93.2828C94.7835 101.646 96.0001 100.43 96.0001 98.9291V44.935C96.0001 43.4343 94.7835 42.2178 93.2828 42.2178H87.9844V43.132C87.9844 43.8895 87.3704 44.5035 86.613 44.5035H72.4416C71.6842 44.5035 71.0702 43.8895 71.0702 43.132V42.2178Z" fill="white" fill-opacity="0.35"/>
</svg>
